<?xml version="1.0" encoding="UTF-8" standalone="yes"?>
<svg xmlns="http://www.w3.org/2000/svg" xmlns:xlink="http://www.w3.org/1999/xlink" width="490.029pt" height="365.905pt" version="1.1" viewBox="-194.702 611.015 490.029 365.905">
  <!--
	Exported with Concepts: Smarter Sketching
	Version: 2025.7.3 on Microsoft Windows NT 10.0.22631.0
	https://concepts.app/
	-->
  <title>Drawing 7</title>
  <desc>Drawing exported from Concepts: Smarter Sketching</desc>
  <defs></defs>
  <g id="Pen" opacity="1.000">
    <path id="STROKE_f30e78dc-f23f-45b8-b8d1-e0dc7d27b6e8" opacity="1.000" fill="none" stroke="#000000" stroke-width="1.600" stroke-opacity="1.000" stroke-linecap="round" stroke-linejoin="round" d="M -151.922 712.268 L -151.981 712.274 Q -151.991 712.685 -148.610 712.863 Q -145.228 713.042 -142.879 713.104 Q -140.530 713.167 -140.042 713.298 Q -139.555 713.430 -138.427 713.540 Q -137.299 713.650 -136.150 713.641 Q -135.001 713.631 -134.542 713.651 Q -134.082 713.671 -134.283 713.699 Q -134.483 713.728 -132.552 713.523 Q -130.620 713.317 -129.485 713.261 Q -128.350 713.206 -127.876 713.230 Q -127.403 713.255 -127.076 713.269 Q -126.750 713.283 -126.089 713.234 Q -125.428 713.186 -124.918 713.173 Q -124.408 713.161 -124.158 713.144 Q -123.908 713.127 -123.538 713.082 Q -123.168 713.037 -122.740 712.997 Q -122.311 712.957 -121.794 712.946 Q -121.277 712.934 -120.941 712.900 Q -120.605 712.866 -120.626 712.867 Q -120.647 712.868 -120.637 712.810 Q -120.627 712.751 -118.077 712.451 Q -115.526 712.151 -113.674 711.964 Q -111.822 711.777 -110.901 711.632 Q -109.979 711.487 -109.351 711.282 Q -108.723 711.078 -108.953 711.144 Q -109.183 711.209 -108.278 710.976 Q -107.374 710.744 -106.881 710.617 Q -106.389 710.489 -106.249 710.462 Q -106.110 710.436 -106.024 710.426 Q -105.939 710.417 -105.298 710.287 Q -104.657 710.157 -104.295 710.061 Q -103.932 709.965 -103.425 709.843 Q -102.918 709.721 -102.976 709.737 Q -103.034 709.752 -102.875 709.677 Q -102.715 709.602 -102.342 709.482 Q -101.968 709.363 -101.364 709.261 Q -100.760 709.160 -100.506 709.098 Q -100.252 709.036 -100.087 709.002 Q -99.923 708.969 -99.934 708.980 Q -99.944 708.991 -99.405 708.900 Q -98.865 708.810 -97.996 708.505 Q -97.127 708.201 -97.275 708.253 Q -97.423 708.306 -96.120 707.782 Q -94.817 707.258 -93.762 706.875 Q -92.708 706.492 -92.180 706.189 Q -91.652 705.887 -91.407 705.663 Q -91.163 705.439 -91.022 705.342 Q -90.882 705.245 -90.518 705.016 Q -90.155 704.788 -89.766 704.539 Q -89.377 704.290 -89.087 704.105 Q -88.797 703.919 -88.664 703.821 Q -88.531 703.723 -88.528 703.722 Q -88.524 703.721 -88.054 703.396 Q -87.585 703.070 -87.494 702.977 Q -87.403 702.884 -87.049 702.573 Q -86.694 702.261 -86.858 702.503 Q -87.021 702.744 -86.266 701.942 Q -85.511 701.141 -85.125 700.587 Q -84.738 700.034 -84.682 699.897 Q -84.625 699.759 -84.297 699.315 Q -83.969 698.871 -83.706 698.542 Q -83.444 698.214 -83.333 698.062 Q -83.222 697.911 -82.891 697.559 Q -82.559 697.208 -82.580 697.233 Q -82.601 697.258 -82.326 696.964 Q -82.051 696.670 -81.689 696.246 Q -81.326 695.822 -81.149 695.599 Q -80.971 695.375 -81.110 695.518 Q -81.249 695.661 -80.664 694.994 Q -80.079 694.327 -79.271 693.368 Q -78.462 692.410 -77.339 690.921 Q -76.216 689.432 -75.496 688.638 Q -74.776 687.845 -74.392 687.240 Q -74.008 686.635 -73.858 686.325 Q -73.709 686.015 -73.617 685.754 Q -73.524 685.493 -73.119 685.044 Q -72.714 684.596 -72.131 683.727 Q -71.548 682.858 -71.156 682.068 Q -70.765 681.277 -70.509 680.737 Q -70.253 680.198 -70.109 679.938 Q -69.964 679.678 -69.807 679.382 Q -69.649 679.086 -69.230 678.381 Q -68.810 677.675 -68.548 677.293 Q -68.287 676.911 -67.986 676.370 Q -67.684 675.829 -67.538 675.638 Q -67.391 675.447 -66.950 674.560 Q -66.510 673.674 -66.296 673.234 Q -66.083 672.794 -65.868 672.443 Q -65.654 672.093 -64.999 671.197 Q -64.344 670.301 -63.772 669.517 Q -63.199 668.734 -62.717 668.076 Q -62.234 667.418 -61.896 666.949 Q -61.558 666.481 -61.366 666.144 Q -61.174 665.807 -61.100 665.674 Q -61.026 665.541 -61.035 665.586 Q -61.044 665.632 -60.931 665.325 Q -60.817 665.018 -60.645 664.465 Q -60.472 663.912 -60.345 663.639 Q -60.218 663.365 -59.982 662.797 Q -59.745 662.229 -59.740 662.234 Q -59.475 661.523 -59.519 661.585 Q -59.336 660.984 -59.305 660.928 Q -59.274 660.872 -59.144 660.284 Q -59.013 659.696 -58.618 658.906 Q -58.223 658.116 -57.724 657.385 Q -57.226 656.655 -56.936 656.269 Q -56.645 655.882 -56.721 655.965 Q -56.796 656.049 -56.467 655.741 Q -56.138 655.433 -55.508 654.801 Q -54.878 654.169 -53.909 653.484 Q -52.940 652.800 -52.359 652.544 Q -51.779 652.287 -51.517 652.127 Q -51.256 651.967 -50.925 651.731 Q -50.594 651.495 -50.719 651.576 Q -50.844 651.657 -50.531 651.486 Q -50.219 651.315 -49.853 651.077 Q -49.487 650.839 -49.390 650.762 Q -49.292 650.685 -48.853 650.423 Q -48.414 650.160 -48.395 650.156 Q -48.377 650.153 -48.324 650.114 Q -48.272 650.074 -48.120 649.990 Q -47.969 649.907 -47.969 649.912 Q -47.970 649.918 -47.730 649.811 Q -47.491 649.703 -47.344 649.678 Q -47.196 649.654 -47.083 649.564 Q -46.970 649.475 -46.386 649.524 Q -45.802 649.573 -45.394 649.763 Q -44.986 649.953 -44.908 649.989 Q -44.831 650.026 -44.927 649.996 Q -45.022 649.967 -44.625 650.070 Q -44.228 650.174 -43.811 650.374 Q -43.394 650.573 -43.390 650.566 Q -43.387 650.559 -43.365 650.580 Q -43.343 650.600 -43.401 650.595 Q -43.458 650.590 -43.108 650.518 Q -42.757 650.446 -42.258 650.876 Q -41.759 651.306 -41.463 651.628 Q -41.167 651.950 -41.168 651.953 Q -41.168 651.957 -40.982 652.346 Q -40.796 652.736 -40.760 652.826 Q -40.724 652.916 -40.726 652.917 Q -40.728 652.919 -40.703 653.009 Q -40.678 653.099 -40.697 652.966 Q -40.715 652.833 -40.404 653.839 Q -40.092 654.845 -39.946 655.464 Q -39.801 656.084 -39.868 656.152 Q -39.934 656.221 -39.427 657.236 Q -38.919 658.251 -38.569 658.698 Q -38.219 659.144 -37.977 659.400 Q -37.736 659.656 -37.693 659.705 Q -37.649 659.753 -37.403 659.983 Q -37.157 660.213 -36.834 660.654 Q -36.511 661.094 -36.361 661.296 Q -36.211 661.497 -36.147 661.616 Q -36.083 661.736 -36.098 661.727 Q -36.113 661.719 -36.054 661.714 Q -35.995 661.709 -35.604 662.382 Q -35.213 663.054 -35.118 663.535 Q -35.023 664.016 -34.886 664.352 Q -34.749 664.688 -34.567 665.042 Q -34.386 665.395 -34.172 665.787 Q -33.958 666.179 -33.961 666.173 Q -33.965 666.166 -33.936 666.275 Q -33.907 666.384 -33.247 667.502 Q -32.588 668.621 -32.144 669.662 Q -31.701 670.704 -31.462 671.310 Q -31.222 671.915 -31.042 672.318 Q -30.861 672.721 -30.873 672.695 Q -30.884 672.669 -30.595 673.161 Q -30.305 673.654 -29.947 674.875 Q -30.124 675.048 -30.335 675.268 Q -29.605 675.851 -29.252 676.581 Q -28.899 677.311 -28.557 679.374 Q -28.214 681.437 -27.676 683.584 Q -27.139 685.732 -26.684 686.848 Q -26.229 687.965 -25.930 688.898 Q -25.631 689.831 -25.532 690.244 Q -25.433 690.657 -25.250 691.439 Q -25.067 692.221 -24.837 692.987 Q -24.606 693.754 -24.453 694.235 Q -24.300 694.716 -24.265 694.896 Q -24.230 695.077 -24.208 695.259 Q -24.186 695.442 -24.180 695.446 Q -24.174 695.450 -24.127 695.920 Q -24.081 696.389 -23.032 701.248 Q -21.983 706.106 -21.234 709.244 Q -20.485 712.381 -20.403 713.653 Q -20.321 714.925 -19.913 716.643 Q -19.505 718.361 -19.255 719.642 Q -19.005 720.923 -18.904 721.738 Q -18.803 722.553 -18.925 723.413 Q -19.047 724.273 -18.925 724.484 Q -18.803 724.695 -18.321 725.495 Q -17.839 726.295 -17.630 727.169 Q -17.421 728.042 -17.216 728.649 Q -17.012 729.256 -17.043 729.636 Q -17.074 730.016 -17.157 730.050 Q -17.240 730.083 -17.249 730.132 Q -17.259 730.180 -17.223 730.424 Q -17.188 730.668 -17.143 731.051 Q -17.098 731.434 -17.064 731.631 Q -17.029 731.829 -16.824 732.066 Q -16.618 732.302 -16.563 732.841 Q -16.508 733.380 -16.428 733.934 Q -16.348 734.489 -15.735 735.595 Q -15.122 736.702 -14.763 737.988 Q -14.404 739.274 -14.241 740.101 Q -14.077 740.928 -14.849 742.192 Q -13.851 742.215 -13.317 745.235 Q -12.782 748.255 -12.873 749.927 Q -12.965 751.598 -12.421 752.732 Q -11.878 753.866 -11.617 754.857 Q -11.356 755.847 -11.297 756.567 Q -11.239 757.287 -11.132 757.758 Q -11.025 758.229 -10.786 760.211 Q -10.546 762.192 -10.152 764.669 Q -9.758 767.146 -9.535 768.428 Q -9.312 769.710 -9.222 770.118 Q -9.131 770.525 -9.252 771.152 Q -9.374 771.779 -8.830 773.462 Q -8.287 775.145 -7.991 776.204 Q -7.696 777.263 -7.591 777.884 Q -7.487 778.505 -7.336 779.321 Q -7.186 780.138 -6.987 780.882 Q -6.788 781.626 -6.102 784.523 Q -5.417 787.421 -4.998 789.708 Q -4.579 791.996 -4.192 794.092 Q -3.804 796.189 -3.330 798.959 Q -2.855 801.730 -2.631 803.022 Q -2.406 804.314 -1.931 805.634 Q -1.455 806.954 -1.283 807.487 Q -1.110 808.019 -1.068 808.569 Q -1.026 809.119 -0.990 809.003 Q -0.955 808.886 -0.957 809.569 Q -0.959 810.251 -0.637 811.705 Q -0.314 813.159 0.005 814.006 Q 0.324 814.853 0.148 814.479 Q -0.028 814.105 0.502 816.919 Q 1.032 819.733 1.796 822.018 Q 2.559 824.303 2.940 825.779 Q 3.321 827.256 3.547 827.927 Q 3.773 828.598 4.080 829.579 Q 4.388 830.560 4.703 831.635 Q 5.019 832.709 5.884 835.510 Q 6.748 838.312 7.715 841.663 Q 8.681 845.015 9.203 846.564 Q 9.725 848.113 10.009 848.906 Q 10.293 849.699 10.567 850.808 Q 10.842 851.917 11.381 852.948 Q 11.920 853.979 12.050 854.519 Q 12.181 855.059 12.422 855.695 Q 12.663 856.331 12.789 856.714 Q 12.915 857.098 13.100 857.517 Q 13.285 857.937 13.317 858.097 Q 13.349 858.256 13.503 858.635 Q 13.657 859.013 13.761 859.230 Q 13.865 859.447 13.912 859.504 Q 13.959 859.560 14.408 860.701 Q 14.858 861.841 15.203 862.749 Q 15.548 863.656 15.704 864.108 Q 15.860 864.560 16.023 864.917 Q 16.186 865.274 16.146 865.178 Q 16.106 865.082 16.378 865.682 Q 16.649 866.282 16.829 866.684 Q 17.008 867.085 17.096 867.288 Q 17.184 867.491 17.199 867.527 Q 17.215 867.562 17.165 867.531 Q 17.115 867.501 17.754 868.676 Q 18.393 869.852 18.952 870.920 Q 19.512 871.988 19.629 872.337 Q 19.746 872.686 19.877 872.930 Q 20.009 873.173 19.986 873.124 Q 19.963 873.074 20.080 873.455 Q 20.198 873.836 20.453 874.467 Q 20.708 875.097 21.097 875.902 Q 21.486 876.706 21.789 877.459 Q 22.093 878.212 22.442 879.016 Q 22.791 879.820 22.876 880.140 Q 22.960 880.461 23.358 881.360 Q 23.756 882.260 24.121 882.787 Q 24.486 883.314 24.827 883.739 Q 25.167 884.163 25.182 884.180 Q 25.198 884.197 25.495 884.550 Q 25.792 884.903 26.175 885.277 Q 26.558 885.651 26.806 885.882 Q 27.054 886.113 27.285 886.317 Q 27.515 886.521 27.697 886.665 Q 27.879 886.808 27.859 886.792 Q 27.839 886.776 28.293 887.038 Q 28.748 887.300 29.156 887.624 Q 29.564 887.947 29.541 887.928 Q 29.519 887.909 29.522 887.918 Q 29.525 887.927 30.114 888.342 Q 30.702 888.757 31.448 889.152 Q 32.195 889.546 32.260 889.576 Q 32.326 889.606 32.879 889.948 Q 33.432 890.289 33.434 890.286 Q 33.436 890.284 33.411 890.281 Q 33.386 890.278 33.982 890.633 Q 34.578 890.988 35.037 891.181 Q 35.497 891.373 36.303 891.775 Q 37.108 892.178 37.585 892.422 Q 38.061 892.666 38.538 892.850 Q 39.016 893.035 39.122 893.074 Q 39.228 893.112 39.228 893.101 Q 39.228 893.091 39.336 893.167 Q 39.445 893.243 40.908 893.689 Q 42.372 894.135 43.661 894.128 Q 44.950 894.121 45.784 894.104 Q 46.618 894.087 47.202 894.071 Q 47.785 894.054 47.874 894.054 Q 47.964 894.053 47.890 894.045 Q 47.815 894.037 48.771 893.993 Q 49.726 893.949 51.635 893.793 Q 53.543 893.637 54.967 893.528 Q 56.391 893.419 57.301 893.275 Q 58.210 893.131 58.961 893.006 Q 59.711 892.880 60.192 892.806 Q 60.672 892.732 60.933 892.680 Q 61.195 892.627 62.059 892.487 Q 62.923 892.347 63.791 892.222 Q 64.659 892.097 65.653 891.874 Q 66.647 891.651 67.127 891.570 Q 67.606 891.490 68.275 891.360 Q 68.944 891.230 68.814 891.286 Q 68.684 891.342 69.536 891.198 Q 70.389 891.054 71.123 890.712 Q 71.858 890.370 72.460 890.094 Q 73.062 889.817 74.351 889.331 Q 75.640 888.844 76.428 887.943 Q 77.216 887.041 77.600 886.526 Q 77.984 886.011 78.156 885.705 Q 78.327 885.398 78.330 885.392 Q 78.333 885.386 78.596 884.962 Q 78.859 884.537 79.344 883.430 Q 79.829 882.324 80.022 881.863 Q 80.216 881.402 80.339 880.997 Q 80.463 880.592 80.500 880.560 Q 80.538 880.527 80.462 880.598 Q 80.385 880.669 81.047 879.080 Q 81.709 877.490 82.221 876.655 Q 82.734 875.820 83.080 875.306 Q 83.426 874.792 83.684 874.460 Q 83.942 874.129 83.923 874.154 Q 83.904 874.180 84.094 873.937 Q 84.283 873.694 84.756 873.015 Q 85.229 872.335 85.469 872.018 Q 85.708 871.701 85.900 871.422 Q 86.093 871.143 86.092 871.143 Q 86.090 871.143 86.094 871.165 Q 86.097 871.188 86.499 870.483 Q 86.901 869.779 87.296 868.991 Q 87.691 868.203 87.987 867.758 Q 88.282 867.313 88.508 867.103 Q 88.733 866.892 89.058 866.231 Q 89.383 865.570 90.782 861.533 Q 92.180 857.496 93.400 854.769 Q 94.619 852.042 95.787 848.186 Q 96.955 844.331 97.829 841.782 Q 98.702 839.234 99.223 837.854 Q 99.744 836.475 100.072 835.677 Q 100.400 834.878 100.629 834.373 Q 100.857 833.867 100.993 833.555 Q 101.130 833.242 101.134 833.245 Q 101.139 833.247 101.262 833.025 Q 101.386 832.802 102.637 828.775 Q 103.888 824.747 105.151 821.646 Q 106.414 818.546 107.109 816.931 Q 107.803 815.316 108.055 814.857 Q 108.306 814.397 109.204 812.440 Q 110.101 810.483 111.711 807.745 Q 113.320 805.008 114.142 803.721 Q 114.964 802.435 115.526 801.349 Q 116.087 800.262 116.477 799.548 Q 116.866 798.833 118.099 796.367 Q 119.331 793.902 120.077 792.499 Q 120.822 791.095 121.861 789.053 Q 122.900 787.010 123.569 785.525 Q 124.239 784.040 124.934 782.823 Q 125.630 781.605 125.721 781.510 Q 125.811 781.415 126.989 779.154 Q 128.166 776.892 129.187 775.462 Q 130.208 774.032 130.713 773.458 Q 131.218 772.884 131.931 772.224 Q 132.645 771.565 133.087 771.204 Q 133.529 770.844 133.741 770.691 Q 133.953 770.539 134.125 770.447 Q 134.296 770.355 134.307 770.361 Q 134.319 770.368 134.381 770.271 Q 134.444 770.174 134.973 770.022 Q 135.502 769.870 135.981 769.940 Q 136.460 770.011 136.749 770.082 Q 137.037 770.153 137.097 770.192 Q 137.156 770.232 137.386 770.380 Q 137.616 770.528 137.736 770.630 Q 137.855 770.732 137.847 770.734 Q 137.839 770.737 137.817 770.767 Q 137.794 770.797 138.147 770.948 Q 138.500 771.098 139.561 772.710 Q 140.622 774.322 141.093 775.730 Q 141.564 777.138 141.739 778.077 Q 141.914 779.016 141.994 779.569 Q 142.074 780.121 142.081 780.149 Q 142.088 780.177 142.064 780.574 Q 142.039 780.972 142.510 783.902 Q 142.980 786.832 143.316 788.769 Q 143.652 790.706 144.031 793.382 Q 144.409 796.058 145.100 799.387 Q 145.792 802.716 146.342 805.171 Q 146.893 807.626 147.706 810.533 Q 148.520 813.439 148.904 814.936 Q 149.288 816.432 149.589 817.618 Q 149.889 818.803 150.584 820.962 Q 151.279 823.120 151.645 824.620 Q 152.011 826.120 153.196 830.027 Q 154.381 833.934 155.226 835.854 Q 156.071 837.774 156.487 838.927 Q 156.904 840.080 157.817 842.956 Q 158.730 845.833 159.723 849.021 Q 160.716 852.209 162.053 855.659 Q 163.389 859.109 164.040 860.505 Q 164.692 861.900 165.282 863.294 Q 165.872 864.687 166.223 865.719 Q 166.573 866.750 166.960 867.591 Q 167.346 868.431 168.692 872.659 Q 170.037 876.886 170.919 880.048 Q 171.801 883.210 172.643 885.486 Q 173.485 887.762 174.342 889.985 Q 175.199 892.208 177.301 895.783 Q 179.403 899.358 180.441 901.044 Q 181.480 902.731 181.954 903.613 Q 182.427 904.495 182.732 904.895 Q 183.037 905.295 183.142 905.427 Q 183.247 905.560 183.405 905.818 Q 183.563 906.077 185.069 908.459 Q 186.575 910.842 187.672 912.202 Q 188.770 913.562 189.463 914.218 Q 190.155 914.875 190.512 915.164 Q 190.870 915.453 191.660 916.249 Q 192.450 917.045 192.783 917.361 Q 193.117 917.677 193.431 917.930 Q 193.745 918.182 193.825 918.228 Q 193.906 918.273 193.705 918.138 Q 193.504 918.002 194.643 918.827 Q 195.782 919.652 196.520 920.131 Q 197.259 920.610 197.449 920.767 Q 197.639 920.924 197.826 921.021 Q 198.014 921.117 198.403 921.471 Q 198.793 921.825 200.185 922.646 Q 201.577 923.467 202.566 923.840 Q 203.556 924.212 204.170 924.361 Q 204.784 924.511 205.405 924.686 Q 206.027 924.862 207.009 925.214 Q 207.991 925.566 209.635 926.165 Q 211.280 926.764 212.361 926.992 Q 213.443 927.221 214.406 927.448 Q 215.369 927.674 215.684 927.765 Q 216.000 927.856 216.064 927.842 Q 216.129 927.827 218.206 928.327 Q 220.283 928.827 221.671 929.390 Q 223.058 929.953 224.454 930.110 Q 225.851 930.266 227.772 930.326 Q 229.694 930.386 230.722 930.515 Q 231.750 930.644 232.485 930.791 Q 233.221 930.939 235.020 931.280 Q 236.818 931.621 238.879 931.793 Q 240.940 931.966 242.616 931.951 Q 244.292 931.935 247.603 932.402 Q 250.913 932.869 255.403 932.801 Q 259.893 932.732 262.168 932.436 Q 264.443 932.141 265.411 932.163 Q 266.380 932.185 267.295 932.147 Q 268.209 932.110 268.701 932.120 Q 269.192 932.130 269.510 932.069 Q 269.829 932.008 270.625 932.099 Q 271.421 932.190 271.961 932.384 Q 272.501 932.577 272.610 932.622 Q 272.720 932.668 272.799 932.685 Q 272.877 932.701 274.253 933.286 "></path>
    <path id="STROKE_e9e6c143-39a0-4f6a-a013-e8fd3734cb80" opacity="1.000" fill="none" stroke="#bb3e45" stroke-width="1.600" stroke-opacity="1.000" stroke-linecap="round" stroke-linejoin="round" d="M -49.555 657.730 Q -49.641 657.695 -50.812 660.788 Q -51.983 663.880 -52.744 666.063 Q -53.506 668.247 -53.760 670.157 Q -54.624 670.394 -48.065 656.454 Q -48.642 655.757 -46.779 659.449 Q -44.915 663.141 -43.871 665.526 Q -42.828 667.912 -42.467 669.164 Q -42.106 670.417 -41.737 671.104 Q -41.367 671.792 -41.028 672.150 "></path>
    <path id="STROKE_8595e708-0b4c-44e8-ae75-66b20ce5305d" opacity="1.000" fill="none" stroke="#bb3e45" stroke-width="1.600" stroke-opacity="1.000" stroke-linecap="round" stroke-linejoin="round" d="M -49.400 661.607 L -49.336 661.573 Q -49.254 661.388 -49.142 663.290 Q -49.029 665.192 -49.303 671.362 Q -49.577 677.533 -49.610 680.940 Q -49.644 684.348 -49.545 688.321 Q -49.446 692.294 -49.550 696.288 Q -49.654 700.281 -49.753 701.877 Q -49.852 703.473 -49.691 704.850 Q -49.529 706.226 -49.379 707.145 Q -49.230 708.064 -49.241 708.482 Q -49.252 708.901 -49.217 709.305 Q -49.182 709.710 -49.183 709.673 Q -49.185 709.637 -49.200 709.567 Q -49.216 709.497 -49.100 710.057 L -49.104 710.018 Q -48.873 709.812 -48.496 709.670 Q -48.446 709.690 -48.433 709.683 Q -48.421 709.677 -48.548 709.785 Q -48.676 709.892 -49.144 710.202 Q -49.188 710.206 -49.090 709.903 "></path>
    <path id="STROKE_4516d09d-4564-4964-9a63-55ac5c2b2b1b" opacity="1.000" fill="none" stroke="#bb3e45" stroke-width="1.600" stroke-opacity="1.000" stroke-linecap="round" stroke-linejoin="round" d="M -83.393 715.446 Q -83.374 715.442 -83.180 715.367 Q -82.661 715.123 -83.652 718.281 Q -84.642 721.438 -85.120 723.458 Q -85.598 725.477 -85.648 726.252 Q -85.697 727.027 -85.402 727.573 Q -85.108 728.118 -84.735 728.377 Q -84.363 728.637 -81.996 728.158 Q -79.628 727.680 -77.920 727.089 Q -76.212 726.498 -74.663 725.058 Q -74.892 724.816 -75.253 724.749 "></path>
    <path id="STROKE_f497419e-b32f-4658-b0ff-bc73ffc078b3" opacity="1.000" fill="none" stroke="#bb3e45" stroke-width="1.600" stroke-opacity="1.000" stroke-linecap="round" stroke-linejoin="round" d="M -84.130 724.865 Q -83.956 724.150 -83.962 724.266 Q -83.399 723.317 -76.415 719.344 Q -76.585 719.249 -76.726 719.206 "></path>
    <path id="STROKE_f3ecb07d-8ff8-48dd-aee5-b41fd5f79554" opacity="1.000" fill="none" stroke="#bb3e45" stroke-width="1.600" stroke-opacity="1.000" stroke-linecap="round" stroke-linejoin="round" d="M -81.416 716.725 Q -80.643 716.211 -81.229 716.478 Q -81.816 716.744 -73.199 711.144 "></path>
    <path id="STROKE_6e6a2965-8cbd-42d2-9209-c12aee82b2a5" opacity="1.000" fill="none" stroke="#bb3e45" stroke-width="1.600" stroke-opacity="1.000" stroke-linecap="round" stroke-linejoin="round" d="M -65.563 718.625 Q -65.568 718.639 -65.482 718.589 Q -65.395 718.540 -65.956 718.866 Q -66.517 719.193 -66.962 720.330 Q -67.408 721.467 -67.506 722.460 Q -67.604 723.453 -67.321 724.283 Q -67.038 725.113 -66.346 725.381 Q -65.655 725.648 -64.577 725.414 Q -63.499 725.179 -62.948 724.681 Q -62.397 724.182 -61.966 723.659 Q -61.535 723.137 -61.163 722.214 Q -60.791 721.292 -61.086 720.191 Q -61.380 719.090 -62.016 718.472 Q -62.651 717.854 -62.878 717.816 Q -63.105 717.777 -63.093 717.787 Q -63.082 717.797 -63.103 717.682 Q -63.123 717.568 -65.836 717.690 Q -65.819 717.727 -65.679 718.082 "></path>
    <path id="STROKE_1dff43a5-1a82-42b1-935f-0964fb17553f" opacity="1.000" fill="none" stroke="#bb3e45" stroke-width="1.600" stroke-opacity="1.000" stroke-linecap="round" stroke-linejoin="round" d="M -60.718 719.516 Q -60.795 719.523 -61.143 719.633 Q -61.516 719.801 -61.104 720.705 Q -60.692 721.609 -60.091 722.093 Q -59.489 722.577 -59.151 722.828 Q -58.813 723.079 -55.524 724.051 "></path>
    <path id="STROKE_57bf271e-42bb-489f-bf6c-7a0bda7ba173" opacity="1.000" fill="none" stroke="#bb3e45" stroke-width="1.600" stroke-opacity="1.000" stroke-linecap="round" stroke-linejoin="round" d="M -49.749 724.516 Q -49.226 725.013 -50.768 728.968 Q -50.809 728.971 -50.873 728.896 "></path>
    <path id="STROKE_dd400d1f-a7a5-44a1-876a-c58edeb23bd3" opacity="1.000" fill="none" stroke="#bb3e45" stroke-width="1.600" stroke-opacity="1.000" stroke-linecap="round" stroke-linejoin="round" d="M -43.314 716.183 Q -43.304 716.098 -43.306 716.084 Q -43.307 716.069 -43.247 716.543 Q -43.187 717.017 -43.150 717.461 Q -43.112 717.906 -43.069 718.721 Q -43.026 719.537 -42.987 721.023 Q -42.947 722.509 -42.986 723.513 Q -43.025 724.517 -42.979 725.939 Q -42.932 727.362 -41.997 728.858 "></path>
    <path id="STROKE_5e36b709-fd7b-4032-9b11-fe7d14460f80" opacity="1.000" fill="none" stroke="#bb3e45" stroke-width="1.600" stroke-opacity="1.000" stroke-linecap="round" stroke-linejoin="round" d="M 134.404 776.069 Q 134.275 775.841 129.374 783.669 Q 128.308 783.785 135.227 774.158 Q 134.560 774.554 138.861 781.612 "></path>
    <path id="STROKE_d21d2ea1-336b-4016-a26b-af98e3899e97" opacity="1.000" fill="none" stroke="#bb3e45" stroke-width="1.600" stroke-opacity="1.000" stroke-linecap="round" stroke-linejoin="round" d="M 134.597 777.271 L 134.169 777.453 Q 133.229 777.356 133.046 782.236 Q 132.863 787.115 132.837 791.725 Q 132.810 796.334 132.724 798.615 Q 132.638 800.896 132.482 802.504 Q 132.327 804.112 131.765 807.337 Q 131.204 810.563 131.080 813.643 Q 130.956 816.723 130.344 822.037 Q 129.731 827.352 129.657 830.286 Q 129.584 833.221 129.620 836.016 Q 129.657 838.812 129.659 841.274 Q 129.662 843.736 129.723 844.791 Q 129.785 845.846 129.857 854.619 Q 129.930 863.392 130.050 868.740 Q 130.169 874.088 130.452 876.427 Q 130.734 878.766 130.876 888.594 "></path>
    <path id="STROKE_ea0ac398-62ca-49d7-926c-65506e776bd3" opacity="1.000" fill="none" stroke="#bb3e45" stroke-width="1.600" stroke-opacity="1.000" stroke-linecap="round" stroke-linejoin="round" d="M 117.543 897.974 Q 117.502 897.918 117.351 897.739 Q 117.252 897.626 116.286 901.034 Q 115.319 904.443 115.460 907.556 Q 115.600 910.669 116.051 912.127 Q 116.501 913.586 116.853 914.134 Q 117.205 914.682 117.483 914.786 Q 117.761 914.891 117.802 914.871 Q 117.842 914.852 118.243 915.090 Q 118.645 915.328 120.419 914.730 Q 122.193 914.132 123.938 912.936 "></path>
    <path id="STROKE_c0526d97-c598-4620-af7d-645c42669afa" opacity="1.000" fill="none" stroke="#bb3e45" stroke-width="1.600" stroke-opacity="1.000" stroke-linecap="round" stroke-linejoin="round" d="M 116.574 908.091 Q 115.922 908.304 117.062 907.637 Q 118.201 906.970 119.389 906.491 Q 120.578 906.012 122.078 905.843 "></path>
    <path id="STROKE_8b2b88b9-d731-4daf-90dc-f7f801aaa9bd" opacity="1.000" fill="none" stroke="#bb3e45" stroke-width="1.600" stroke-opacity="1.000" stroke-linecap="round" stroke-linejoin="round" d="M 118.822 898.788 Q 118.499 898.393 123.706 895.532 "></path>
    <path id="STROKE_15e535b8-d2ed-49c5-b049-2dc097361ad2" opacity="1.000" fill="none" stroke="#bb3e45" stroke-width="1.600" stroke-opacity="1.000" stroke-linecap="round" stroke-linejoin="round" d="M 128.977 912.471 Q 128.827 912.499 129.302 912.380 Q 129.778 912.260 130.714 911.428 Q 131.650 910.595 131.774 910.383 Q 131.898 910.170 132.260 909.196 Q 132.621 908.222 131.976 907.002 Q 131.331 905.781 130.681 905.394 Q 130.031 905.008 129.701 904.810 Q 129.371 904.613 128.526 905.136 Q 127.682 905.660 127.232 906.120 Q 126.782 906.581 126.752 906.729 Q 126.722 906.877 126.543 907.349 Q 126.365 907.821 126.311 908.273 Q 126.256 908.724 126.592 909.613 Q 126.927 910.502 128.008 910.765 "></path>
    <path id="STROKE_626cca17-8bcf-4687-8642-85bcb4d2c330" opacity="1.000" fill="none" stroke="#bb3e45" stroke-width="1.600" stroke-opacity="1.000" stroke-linecap="round" stroke-linejoin="round" d="M 131.225 908.711 Q 131.395 909.897 131.272 909.541 Q 131.150 909.185 131.496 909.991 Q 131.842 910.797 132.273 911.109 Q 132.703 911.422 133.654 911.639 Q 134.605 911.857 136.536 910.882 "></path>
    <path id="STROKE_7977c99c-5d06-4741-b7bc-c78200cd8f74" opacity="1.000" fill="none" stroke="#bb3e45" stroke-width="1.600" stroke-opacity="1.000" stroke-linecap="round" stroke-linejoin="round" d="M 139.443 913.401 Q 139.169 914.001 139.226 913.922 Q 138.955 914.404 139.306 918.057 Q 139.386 918.091 139.520 917.898 "></path>
    <path id="STROKE_83285b61-e2d5-43ff-b315-2dbee798a913" opacity="1.000" fill="none" stroke="#bb3e45" stroke-width="1.600" stroke-opacity="1.000" stroke-linecap="round" stroke-linejoin="round" d="M 144.714 906.192 L 144.451 905.839 Q 144.370 905.630 144.307 905.680 Q 144.245 905.731 144.516 905.567 Q 144.787 905.403 145.223 905.199 Q 145.659 904.995 145.870 904.986 Q 146.082 904.978 146.497 904.976 Q 146.912 904.975 146.752 904.948 Q 146.591 904.921 147.859 905.318 Q 149.127 905.716 148.512 908.373 Q 147.897 911.029 145.325 915.986 Q 144.434 916.272 149.559 916.114 "></path>
    <path id="STROKE_c519750f-b7c0-4c51-bbad-d6c6a62b9ad6" opacity="1.000" fill="none" stroke="#bb3e45" stroke-width="1.600" stroke-opacity="1.000" stroke-linecap="round" stroke-linejoin="round" d="M 47.153 649.707 Q 47.158 649.688 47.216 649.553 Q 46.977 650.361 44.360 656.053 Q 44.331 656.044 49.401 648.948 Q 49.511 649.063 49.764 649.372 Q 50.016 649.682 52.229 650.926 Q 54.442 652.169 55.448 653.018 Q 56.455 653.868 56.856 654.349 Q 57.257 654.831 57.451 655.055 Q 57.645 655.278 57.750 655.395 Q 57.855 655.511 58.097 655.734 Q 58.338 655.958 58.365 655.967 Q 58.392 655.976 58.588 656.064 "></path>
    <path id="STROKE_c526ec66-f5ae-4961-8fde-f33da618f661" opacity="1.000" fill="none" stroke="#bb3e45" stroke-width="1.600" stroke-opacity="1.000" stroke-linecap="round" stroke-linejoin="round" d="M 48.277 651.490 Q 48.188 651.782 48.290 652.271 Q 48.392 652.760 48.168 653.812 Q 47.944 654.864 47.727 657.297 Q 47.510 659.730 47.618 662.075 Q 47.726 664.420 47.638 667.024 Q 47.551 669.628 48.099 675.702 Q 48.647 681.777 48.998 686.600 Q 49.348 691.423 49.483 693.847 Q 49.617 696.271 49.079 705.679 Q 48.540 715.087 48.166 719.939 Q 47.792 724.790 47.788 727.542 Q 47.784 730.293 47.768 731.228 Q 47.751 732.162 47.580 735.538 Q 47.408 738.914 47.740 744.884 Q 48.072 750.854 48.192 754.692 Q 48.311 758.529 48.297 760.303 Q 48.282 762.077 48.324 766.217 Q 48.366 770.357 48.426 772.487 Q 48.487 774.617 48.541 776.033 Q 48.595 777.449 48.900 780.829 Q 49.204 784.209 49.435 790.912 Q 49.665 797.614 49.727 801.861 Q 49.788 806.107 49.806 807.873 Q 49.824 809.639 49.848 811.198 Q 49.872 812.758 50.136 817.238 Q 50.399 821.719 50.497 825.196 Q 50.596 828.674 50.679 831.198 Q 50.762 833.722 50.879 835.760 Q 50.996 837.797 51.060 840.143 Q 51.124 842.489 50.903 848.786 Q 50.682 855.083 50.670 858.770 Q 50.658 862.457 50.720 864.357 Q 50.782 866.257 50.725 867.970 Q 50.669 869.684 50.564 874.228 Q 50.460 878.771 49.895 887.783 L 49.885 887.784 Q 49.848 887.739 50.414 890.958 L 50.448 890.919 "></path>
    <path id="STROKE_bf66c102-73d8-4ac6-9b29-2f1277027193" opacity="1.000" fill="none" stroke="#bb3e45" stroke-width="1.600" stroke-opacity="1.000" stroke-linecap="round" stroke-linejoin="round" d="M 58.123 765.604 Q 57.703 765.742 56.742 768.703 Q 55.781 771.663 55.583 773.720 Q 55.385 775.777 55.391 776.906 Q 55.398 778.034 55.778 779.263 Q 56.158 780.492 57.729 779.770 Q 59.300 779.048 60.457 778.783 Q 61.614 778.519 62.386 778.434 "></path>
    <path id="STROKE_12793464-76c2-4db3-8564-1305f3ecb50c" opacity="1.000" fill="none" stroke="#bb3e45" stroke-width="1.600" stroke-opacity="1.000" stroke-linecap="round" stroke-linejoin="round" d="M 55.526 774.790 Q 54.836 774.078 62.619 771.534 "></path>
    <path id="STROKE_fa8aa89b-a3ab-414a-ad94-3f06238efc4a" opacity="1.000" fill="none" stroke="#bb3e45" stroke-width="1.600" stroke-opacity="1.000" stroke-linecap="round" stroke-linejoin="round" d="M 58.859 767.309 Q 58.809 767.264 58.696 767.016 Q 58.756 766.361 66.417 763.007 "></path>
    <path id="STROKE_e0ab0129-2273-4e3c-b267-2e7f22323a62" opacity="1.000" fill="none" stroke="#bb3e45" stroke-width="1.600" stroke-opacity="1.000" stroke-linecap="round" stroke-linejoin="round" d="M 67.076 779.286 Q 67.082 779.364 67.150 779.537 Q 68.373 779.578 68.064 779.513 Q 68.488 779.287 69.685 778.103 Q 70.882 776.919 71.096 775.913 Q 71.310 774.908 70.705 774.023 Q 70.101 773.137 69.566 772.970 Q 69.032 772.803 68.487 772.715 Q 67.942 772.627 67.171 772.973 Q 66.400 773.318 65.946 773.605 Q 65.492 773.892 64.787 774.645 Q 64.081 775.398 63.884 776.188 Q 63.686 776.978 63.676 777.173 Q 63.666 777.368 63.744 777.556 Q 63.822 777.745 64.211 777.938 Q 64.599 778.131 64.905 778.184 Q 65.211 778.238 65.603 778.124 "></path>
    <path id="STROKE_bdc00052-7cc5-4553-b6c4-6f5108cdb486" opacity="1.000" fill="none" stroke="#bb3e45" stroke-width="1.600" stroke-opacity="1.000" stroke-linecap="round" stroke-linejoin="round" d="M 69.247 775.100 Q 68.427 775.557 68.660 775.477 Q 68.263 776.876 69.067 778.057 Q 69.870 779.239 72.115 779.713 "></path>
    <circle id="STROKE_5f033666-8cc3-4128-9c8a-0c2c1662ea96" opacity="1.000" fill="#bb3e45" stroke="#bb3e45" stroke-width="0.1" stroke-opacity="1.000" fill-opacity="1.000" cx="77.077" cy="781.418" r="0.800"></circle>
    <path id="STROKE_994cac5b-211b-485a-b9f4-1a83ca715cfc" opacity="1.000" fill="none" stroke="#bb3e45" stroke-width="1.600" stroke-opacity="1.000" stroke-linecap="round" stroke-linejoin="round" d="M 78.782 780.178 Q 78.864 780.742 78.604 783.056 Q 78.344 785.370 77.145 788.469 Q 77.179 788.194 77.387 787.814 "></path>
    <path id="STROKE_d362e108-3df0-4eab-918d-7984e7008586" opacity="1.000" fill="none" stroke="#bb3e45" stroke-width="1.600" stroke-opacity="1.000" stroke-linecap="round" stroke-linejoin="round" d="M 84.209 776.030 Q 85.123 775.620 84.924 775.695 Q 84.599 775.735 88.860 774.402 "></path>
    <path id="STROKE_c5b63ed9-1f38-455f-92c0-2422053677e1" opacity="1.000" fill="none" stroke="#bb3e45" stroke-width="1.600" stroke-opacity="1.000" stroke-linecap="round" stroke-linejoin="round" d="M 93.395 772.193 Q 92.816 772.513 93.430 774.853 Q 94.045 777.192 96.496 779.480 "></path>
    <path id="STROKE_4d5e40c6-d4d5-458d-8b3a-3712e90e3053" opacity="1.000" fill="none" stroke="#ffb352" stroke-width="1.600" stroke-opacity="1.000" stroke-linecap="round" stroke-linejoin="round" d="M -34.121 714.852 L -34.111 714.887 Q -33.718 715.436 -33.661 719.535 Q -33.604 723.634 -33.537 726.819 Q -33.469 730.004 -33.312 731.433 Q -33.155 732.862 -33.078 733.671 Q -33.001 734.479 -33.009 737.322 Q -33.016 740.164 -33.276 746.311 Q -33.535 752.457 -33.869 756.053 Q -34.202 759.648 -34.153 761.761 Q -34.104 763.874 -34.166 767.708 Q -34.228 771.543 -34.273 773.251 Q -34.318 774.959 -34.164 779.274 Q -34.011 783.588 -34.054 785.889 Q -34.097 788.191 -34.066 789.155 Q -34.034 790.120 -33.613 797.485 Q -33.192 804.851 -33.053 809.932 Q -32.914 815.013 -32.736 817.660 Q -32.558 820.307 -31.959 825.603 Q -31.361 830.899 -31.192 833.677 Q -31.023 836.454 -31.021 837.933 Q -31.018 839.413 -30.950 847.507 Q -30.881 855.600 -30.889 860.045 Q -30.897 864.490 -30.816 866.182 Q -30.734 867.874 -30.844 872.974 Q -30.954 878.075 -30.729 881.786 Q -30.504 885.498 -30.077 890.272 Q -29.992 889.953 -30.004 889.930 "></path>
    <path id="STROKE_00f3f678-2aa0-44f2-a7e0-ff71d7e1c0dc" opacity="1.000" fill="none" stroke="#ffb352" stroke-width="1.600" stroke-opacity="1.000" stroke-linecap="round" stroke-linejoin="round" d="M -36.313 884.037 Q -36.447 883.862 -36.726 883.560 Q -36.741 883.520 -35.996 886.309 Q -35.251 889.098 -34.346 890.906 Q -33.442 892.714 -32.999 893.332 Q -32.556 893.950 -32.050 894.613 Q -31.544 895.275 -31.216 895.524 Q -30.887 895.772 -30.590 895.942 Q -30.293 896.112 -29.588 895.250 Q -28.883 894.389 -27.776 892.352 Q -26.669 890.315 -26.000 889.363 Q -25.331 888.411 -24.712 887.532 Q -24.094 886.652 -22.765 884.850 "></path>
    <path id="STROKE_8293bfa7-1a79-4096-9216-e4351f0c5404" opacity="1.000" fill="none" stroke="#ffb352" stroke-width="1.600" stroke-opacity="1.000" stroke-linecap="round" stroke-linejoin="round" d="M -72.040 800.554 Q -72.049 800.495 -72.421 800.073 Q -72.157 799.612 -72.730 800.499 Q -73.304 801.386 -74.272 803.148 Q -75.240 804.910 -76.182 806.846 Q -77.124 808.781 -78.335 810.877 Q -79.545 812.974 -80.548 814.362 Q -81.550 815.750 -82.074 816.651 Q -82.598 817.553 -82.791 818.518 Q -82.984 819.482 -82.255 819.543 Q -81.526 819.604 -80.265 819.762 Q -79.004 819.920 -78.409 819.948 Q -77.814 819.977 -75.866 819.994 Q -73.918 820.011 -72.701 819.704 Q -71.483 819.398 -70.193 818.919 Q -68.903 818.440 -68.802 817.305 Q -68.701 816.171 -69.352 813.831 Q -70.002 811.492 -70.647 810.172 Q -71.293 808.852 -73.399 806.001 L -73.384 805.931 "></path>
    <path id="STROKE_6327844c-a5c1-4523-b6a4-79cce4a7394a" opacity="1.000" fill="none" stroke="#ffb352" stroke-width="1.600" stroke-opacity="1.000" stroke-linecap="round" stroke-linejoin="round" d="M -63.515 800.801 Q -64.050 800.303 -63.869 821.212 "></path>
    <path id="STROKE_b48a4573-5155-4069-a4a4-64cd47a6fec4" opacity="1.000" fill="none" stroke="#ffb352" stroke-width="1.600" stroke-opacity="1.000" stroke-linecap="round" stroke-linejoin="round" d="M -57.006 804.410 Q -57.082 804.328 -57.437 804.172 Q -57.717 804.827 -57.715 804.839 Q -59.012 805.818 -56.582 817.746 "></path>
    <path id="STROKE_ab1bedef-611b-416e-b997-9c06543fbc10" opacity="1.000" fill="none" stroke="#ffb352" stroke-width="1.600" stroke-opacity="1.000" stroke-linecap="round" stroke-linejoin="round" d="M -60.508 813.182 Q -60.872 813.016 -61.039 812.939 Q -61.205 812.862 -61.172 812.864 Q -61.138 812.867 -61.175 812.859 Q -61.213 812.851 -61.197 812.468 Q -61.182 812.085 -56.582 811.237 "></path>
    <path id="STROKE_f12bc048-a8fa-4a91-be31-40ba92371db0" opacity="1.000" fill="none" stroke="#ffb352" stroke-width="1.600" stroke-opacity="1.000" stroke-linecap="round" stroke-linejoin="round" d="M -52.195 799.669 Q -52.238 799.983 -51.733 800.623 Q -51.228 801.263 -50.583 801.092 Q -49.938 800.921 -49.449 800.550 Q -48.960 800.180 -48.572 799.709 Q -48.183 799.238 -47.996 798.983 Q -47.809 798.728 -47.686 798.540 Q -47.562 798.353 -47.407 798.053 Q -47.252 797.753 -47.239 797.344 Q -47.226 796.935 -47.195 796.869 Q -47.164 796.803 -47.656 796.008 Q -48.148 795.213 -49.308 795.040 Q -50.468 794.867 -51.281 794.934 Q -52.094 795.002 -52.797 795.303 Q -53.500 795.604 -52.408 797.618 "></path>
    <path id="STROKE_ff6ff9cd-0a0b-4b78-abb7-03a5b92cb6ab" opacity="1.000" fill="none" stroke="#ffb352" stroke-width="1.600" stroke-opacity="1.000" stroke-linecap="round" stroke-linejoin="round" d="M -47.986 815.906 Q -48.015 816.128 -48.016 818.494 Q -48.017 820.861 -47.966 821.983 Q -47.915 823.105 -47.530 823.683 Q -47.145 824.261 -46.500 824.467 "></path>
    <path id="STROKE_de629fb7-9b26-42c9-b0c5-b59cf46647a5" opacity="1.000" fill="none" stroke="#000000" stroke-width="1.600" stroke-opacity="1.000" stroke-linecap="round" stroke-linejoin="round" d="M -159.173 617.516 L -159.173 937.516 L -159.173 937.516 "></path>
    <path id="STROKE_f1553605-7066-4ba9-b3e9-d4dfc05464a6" opacity="1.000" fill="none" stroke="#000000" stroke-width="1.600" stroke-opacity="1.000" stroke-linecap="round" stroke-linejoin="round" d="M -159.173 937.516 L 288.827 937.516 L 288.827 937.516 "></path>
    <path id="STROKE_c9db6e5b-8bf3-4a92-bc18-7203f68391d1" opacity="1.000" fill="none" stroke="#000000" stroke-width="1.600" stroke-opacity="1.000" stroke-linecap="round" stroke-linejoin="round" d="M -21.031 952.380 L -21.046 952.387 Q -21.461 952.818 -21.876 957.400 Q -22.291 961.983 -22.431 964.482 Q -22.572 966.982 -22.716 968.249 Q -22.860 969.516 -23.401 970.420 "></path>
    <path id="STROKE_3778ffe2-5f9c-430b-a4b6-c7c1a78001ca" opacity="1.000" fill="none" stroke="#000000" stroke-width="1.600" stroke-opacity="1.000" stroke-linecap="round" stroke-linejoin="round" d="M -23.755 955.139 Q -23.961 954.930 -22.816 953.408 Q -21.671 951.886 -20.608 951.427 Q -19.544 950.967 -18.501 951.171 Q -17.457 951.375 -16.866 951.751 Q -16.276 952.127 -16.000 952.469 Q -15.724 952.811 -15.716 952.880 Q -15.708 952.950 -15.714 952.829 Q -15.720 952.708 -15.067 953.967 Q -14.413 955.225 -14.819 956.552 Q -15.225 957.878 -15.679 958.475 Q -16.134 959.071 -16.816 959.589 Q -17.499 960.105 -18.173 960.356 Q -18.846 960.607 -20.882 961.112 Q -20.555 961.926 -18.956 963.681 Q -17.356 965.436 -16.468 966.798 Q -15.581 968.159 -12.895 969.218 "></path>
    <path id="STROKE_2254c555-1464-4db3-b796-c064d070dfa8" opacity="1.000" fill="none" stroke="#000000" stroke-width="1.600" stroke-opacity="1.000" stroke-linecap="round" stroke-linejoin="round" d="M -6.422 963.346 Q -6.703 963.342 -6.246 963.756 Q -5.790 964.170 -4.719 963.550 Q -3.647 962.930 -2.887 961.711 Q -2.126 960.491 -1.927 959.866 Q -1.728 959.241 -1.798 958.647 Q -1.869 958.053 -2.225 957.664 Q -2.581 957.276 -2.784 957.152 Q -2.987 957.029 -4.116 957.250 Q -5.245 957.470 -6.732 959.313 Q -8.218 961.156 -8.524 962.825 Q -8.829 964.495 -8.696 965.336 Q -8.564 966.178 -7.462 967.179 Q -6.360 968.181 -4.453 967.986 Q -2.546 967.791 -0.090 966.388 "></path>
    <path id="STROKE_64bccc8a-b44c-4e5d-8988-a95d3e82d1c1" opacity="1.000" fill="none" stroke="#000000" stroke-width="1.600" stroke-opacity="1.000" stroke-linecap="round" stroke-linejoin="round" d="M 4.190 966.246 Q 4.337 966.047 4.169 966.247 Q 4.002 966.446 4.956 965.641 Q 5.909 964.836 6.428 964.205 Q 6.946 963.574 7.247 962.900 Q 7.548 962.226 7.506 961.446 Q 7.464 960.665 7.404 960.473 Q 7.343 960.281 6.985 959.895 Q 6.628 959.509 5.351 959.785 Q 4.074 960.061 2.863 961.132 Q 1.651 962.204 2.103 964.513 "></path>
    <path id="STROKE_b8483a8b-e86b-45f8-a534-9c76fb08c6e5" opacity="1.000" fill="none" stroke="#000000" stroke-width="1.600" stroke-opacity="1.000" stroke-linecap="round" stroke-linejoin="round" d="M 6.878 961.860 Q 6.942 961.723 6.904 961.742 Q 6.865 961.760 6.885 961.827 Q 6.905 961.893 6.869 961.801 Q 6.832 961.708 6.765 961.836 Q 6.697 961.963 6.612 962.499 Q 6.527 963.035 6.623 963.261 Q 6.719 963.487 7.172 964.218 Q 7.626 964.948 8.155 965.261 Q 8.685 965.575 9.059 965.706 Q 9.434 965.836 9.897 965.886 Q 10.360 965.935 10.770 965.928 "></path>
    <path id="STROKE_05fde1dd-6334-4e2e-904d-12539fd088f1" opacity="1.000" fill="none" stroke="#000000" stroke-width="1.600" stroke-opacity="1.000" stroke-linecap="round" stroke-linejoin="round" d="M 18.021 958.641 Q 17.674 958.314 16.100 959.907 Q 14.527 961.499 13.781 962.836 Q 13.035 964.174 12.747 965.062 Q 12.458 965.950 13.124 966.682 Q 13.790 967.413 15.531 967.481 Q 17.272 967.550 19.719 966.282 "></path>
    <path id="STROKE_1a271f6d-cc87-49e7-8255-2b247085e385" opacity="1.000" fill="none" stroke="#000000" stroke-width="1.600" stroke-opacity="1.000" stroke-linecap="round" stroke-linejoin="round" d="M 28.669 956.625 L 28.523 956.527 Q 28.196 956.481 27.990 960.523 Q 27.785 964.565 27.926 968.829 "></path>
    <path id="STROKE_4e600bbc-12af-4709-be12-d29205860ba8" opacity="1.000" fill="none" stroke="#000000" stroke-width="1.600" stroke-opacity="1.000" stroke-linecap="round" stroke-linejoin="round" d="M 25.308 962.886 L 24.887 962.948 Q 25.020 962.922 25.017 963.085 Q 25.014 963.249 26.952 963.303 Q 28.890 963.356 30.225 963.069 Q 31.561 962.782 32.737 962.107 "></path>
    <path id="STROKE_3cd2d939-b538-4a51-a714-873210f19b33" opacity="1.000" fill="none" stroke="#000000" stroke-width="1.600" stroke-opacity="1.000" stroke-linecap="round" stroke-linejoin="round" d="M 36.769 959.914 Q 36.560 960.372 36.563 960.384 Q 35.981 961.487 35.390 967.909 "></path>
    <circle id="STROKE_a4c11e0f-6454-413b-896a-f9bbb4f72642" opacity="1.000" fill="#000000" stroke="#000000" stroke-width="0.1" stroke-opacity="1.000" fill-opacity="1.000" cx="35.955" cy="954.608" r="0.800"></circle>
    <path id="STROKE_b7cef278-a996-4222-8108-57a77635e3fe" opacity="1.000" fill="none" stroke="#000000" stroke-width="1.600" stroke-opacity="1.000" stroke-linecap="round" stroke-linejoin="round" d="M 42.818 966.069 Q 43.350 966.252 43.274 966.179 Q 42.973 966.296 45.319 965.608 Q 47.664 964.921 48.911 963.890 Q 50.157 962.859 50.947 961.877 Q 51.736 960.896 51.461 960.174 Q 51.186 959.452 50.337 958.941 Q 49.488 958.430 48.908 958.271 Q 48.328 958.113 47.526 958.030 Q 46.724 957.947 45.763 958.218 Q 44.803 958.488 44.351 958.889 Q 43.899 959.291 43.263 959.997 Q 42.627 960.703 44.480 963.027 "></path>
    <path id="STROKE_46345fff-e2f5-491c-a3f6-23d6e73b00d6" opacity="1.000" fill="none" stroke="#000000" stroke-width="1.600" stroke-opacity="1.000" stroke-linecap="round" stroke-linejoin="round" d="M 56.649 960.622 Q 55.879 960.341 55.258 966.518 L 55.247 966.519 Q 54.901 966.085 56.246 964.185 Q 57.591 962.286 58.324 961.186 Q 59.057 960.086 59.508 959.674 Q 59.959 959.263 60.438 959.172 Q 60.917 959.083 61.355 959.342 Q 61.792 959.602 61.858 959.851 Q 61.925 960.099 61.918 960.140 Q 61.912 960.181 62.405 962.127 Q 62.898 964.073 63.901 966.105 "></path>
    <path id="STROKE_49f0b9a7-7b86-40ab-b06c-939835e3037d" opacity="1.000" fill="none" stroke="#000000" stroke-width="1.600" stroke-opacity="1.000" stroke-linecap="round" stroke-linejoin="round" d="M 102.953 953.936 Q 102.112 953.978 102.277 954.011 Q 102.136 954.073 99.798 955.500 Q 97.459 956.928 96.002 958.860 Q 94.544 960.792 94.047 962.046 Q 93.550 963.300 93.429 964.128 Q 93.307 964.955 93.920 966.065 Q 94.533 967.175 97.381 967.059 Q 100.229 966.942 103.377 965.963 "></path>
    <path id="STROKE_10d022c4-f57d-4a17-a01a-152d42054b6c" opacity="1.000" fill="none" stroke="#000000" stroke-width="1.600" stroke-opacity="1.000" stroke-linecap="round" stroke-linejoin="round" d="M 105.677 964.407 Q 105.277 965.044 105.813 964.961 Q 106.348 964.879 106.408 964.775 Q 106.468 964.671 106.662 964.525 Q 106.855 964.379 107.197 964.101 Q 107.539 963.824 107.541 963.813 Q 107.542 963.802 107.822 963.589 Q 108.102 963.375 109.030 962.494 Q 109.957 961.613 110.352 960.927 Q 110.746 960.241 110.887 959.602 Q 111.028 958.963 111.015 958.567 Q 111.002 958.171 110.855 957.631 Q 110.708 957.092 110.449 956.836 Q 110.190 956.580 109.588 956.467 Q 108.986 956.354 108.153 956.767 Q 107.320 957.181 106.526 958.206 Q 105.732 959.232 105.638 960.335 Q 105.543 961.438 105.889 961.954 Q 106.234 962.469 106.809 962.850 "></path>
    <path id="STROKE_98347ae0-f568-478d-aa6b-ceb7e8369c2e" opacity="1.000" fill="none" stroke="#000000" stroke-width="1.600" stroke-opacity="1.000" stroke-linecap="round" stroke-linejoin="round" d="M 116.713 964.513 Q 116.720 964.547 116.847 964.818 Q 117.727 965.016 119.198 964.143 Q 120.668 963.269 121.351 962.520 Q 122.034 961.771 122.150 961.141 Q 122.265 960.511 122.151 960.230 Q 122.036 959.949 121.559 959.561 Q 121.082 959.173 120.670 959.015 Q 120.258 958.856 120.347 958.894 Q 120.436 958.933 119.671 958.683 Q 118.906 958.433 118.062 958.703 Q 117.218 958.972 116.364 959.887 Q 115.510 960.801 115.540 961.749 Q 115.570 962.697 116.218 963.487 "></path>
    <path id="STROKE_158df120-0457-4e73-8a9a-4abf2dc21411" opacity="1.000" fill="none" stroke="#000000" stroke-width="1.600" stroke-opacity="1.000" stroke-linecap="round" stroke-linejoin="round" d="M 126.158 961.718 Q 125.735 962.316 125.830 962.191 Q 125.708 962.316 124.820 963.421 Q 124.969 963.213 125.156 962.964 Q 125.344 962.714 125.368 962.721 Q 125.393 962.728 126.085 961.614 Q 126.778 960.500 127.564 959.138 Q 128.350 957.776 133.339 957.650 "></path>
    <path id="STROKE_25123e3a-c315-437a-bc09-42a9e5630521" opacity="1.000" fill="none" stroke="#000000" stroke-width="1.600" stroke-opacity="1.000" stroke-linecap="round" stroke-linejoin="round" d="M 141.404 953.335 Q 141.447 953.310 141.464 953.283 Q 141.481 953.256 141.127 953.649 Q 140.773 954.042 140.425 956.870 Q 140.077 959.697 140.687 962.554 L 140.697 962.555 Q 140.755 962.447 140.884 961.816 Q 141.012 961.185 140.914 960.589 Q 140.815 959.994 140.351 959.635 Q 139.886 959.275 139.528 959.177 Q 139.169 959.078 138.839 959.072 Q 138.509 959.066 138.255 959.018 Q 138.000 958.970 136.916 959.468 Q 135.832 959.966 135.036 960.688 Q 134.240 961.410 134.028 961.758 Q 133.816 962.107 133.750 962.930 Q 133.684 963.752 133.944 964.179 Q 134.204 964.607 134.576 965.142 Q 134.948 965.677 136.323 965.947 Q 137.699 966.218 139.317 966.034 "></path>
    <path id="STROKE_68c484f0-9009-445f-ae6f-baaa775f4dae" opacity="1.000" fill="none" stroke="#000000" stroke-width="1.600" stroke-opacity="1.000" stroke-linecap="round" stroke-linejoin="round" d="M 147.382 962.143 Q 147.012 961.874 146.764 966.360 Q 146.667 966.439 147.311 966.246 "></path>
    <path id="STROKE_9a94c239-d135-4d13-8d22-ce1a8ab1375e" opacity="1.000" fill="none" stroke="#000000" stroke-width="1.600" stroke-opacity="1.000" stroke-linecap="round" stroke-linejoin="round" d="M 146.710 956.200 Q 146.549 956.060 145.938 955.660 Q 145.835 955.847 146.675 956.271 "></path>
    <path id="STROKE_a0a6983f-f32f-4797-b7b5-49b1f89ffb4c" opacity="1.000" fill="none" stroke="#000000" stroke-width="1.600" stroke-opacity="1.000" stroke-linecap="round" stroke-linejoin="round" d="M 154.810 959.950 Q 154.882 959.774 154.349 960.871 Q 153.816 961.968 153.241 962.781 Q 152.665 963.593 151.965 963.972 Q 152.107 962.964 153.844 960.880 Q 155.581 958.797 156.781 957.760 Q 157.981 956.725 158.638 956.403 Q 159.295 956.081 160.068 956.482 Q 160.840 956.883 160.329 958.760 Q 159.817 960.637 159.644 962.231 Q 159.471 963.825 159.586 965.079 "></path>
    <path id="STROKE_c38c9e0c-a95c-42ca-9ae6-c3538e469589" opacity="1.000" fill="none" stroke="#000000" stroke-width="1.600" stroke-opacity="1.000" stroke-linecap="round" stroke-linejoin="round" d="M 164.786 962.532 Q 164.986 962.587 166.576 961.906 Q 168.165 961.225 168.930 960.399 Q 169.695 959.573 170.014 959.107 Q 170.332 958.640 170.245 958.284 Q 170.158 957.928 169.943 957.670 Q 169.728 957.412 169.723 957.467 Q 169.719 957.522 169.448 957.226 Q 169.177 956.929 168.250 956.881 Q 167.324 956.834 166.699 957.307 Q 166.073 957.781 165.533 958.318 Q 164.992 958.854 164.841 959.262 Q 164.691 959.671 164.813 960.047 Q 164.936 960.424 164.953 960.391 Q 164.970 960.358 164.986 960.369 Q 165.003 960.381 165.670 960.197 "></path>
    <path id="STROKE_eabc90b9-d675-4bfb-ac9d-958fd95cf75f" opacity="1.000" fill="none" stroke="#000000" stroke-width="1.600" stroke-opacity="1.000" stroke-linecap="round" stroke-linejoin="round" d="M 169.243 957.580 L 169.259 957.574 Q 169.082 958.077 171.577 960.940 "></path>
    <path id="STROKE_8602aceb-5484-4f5a-b4bb-7cf7910872db" opacity="1.000" fill="none" stroke="#000000" stroke-width="1.600" stroke-opacity="1.000" stroke-linecap="round" stroke-linejoin="round" d="M 176.954 956.660 Q 176.421 957.027 175.433 966.246 "></path>
    <path id="STROKE_fe593d0b-9555-4407-a6fb-55861cd2c42a" opacity="1.000" fill="none" stroke="#000000" stroke-width="1.600" stroke-opacity="1.000" stroke-linecap="round" stroke-linejoin="round" d="M 174.761 961.966 Q 174.288 961.576 174.318 961.605 Q 174.348 961.633 174.308 961.494 Q 174.459 961.371 178.051 962.497 "></path>
    <path id="STROKE_56f2a736-d544-42f7-bb69-f498dca84cca" opacity="1.000" fill="none" stroke="#000000" stroke-width="1.600" stroke-opacity="1.000" stroke-linecap="round" stroke-linejoin="round" d="M 182.685 962.037 L 182.877 962.075 Q 183.497 961.685 183.489 961.686 Q 184.741 960.880 185.666 959.919 Q 186.590 958.957 186.735 957.980 Q 186.879 957.003 186.509 956.587 Q 186.140 956.171 184.996 956.575 Q 183.852 956.979 182.971 958.008 Q 182.090 959.036 181.593 960.272 Q 181.097 961.508 181.256 962.256 Q 181.415 963.005 182.071 963.441 Q 182.728 963.877 184.330 963.970 Q 185.932 964.064 190.644 962.001 "></path>
    <path id="STROKE_8353adcc-d68c-46c3-ab54-fd69ce533444" opacity="1.000" fill="none" stroke="#000000" stroke-width="1.600" stroke-opacity="1.000" stroke-linecap="round" stroke-linejoin="round" d="M -184.068 817.321 Q -184.158 817.407 -184.423 817.619 Q -183.973 817.419 -180.345 818.218 Q -176.717 819.017 -174.310 819.234 Q -171.902 819.451 -170.527 819.435 Q -169.152 819.420 -168.375 818.879 Q -167.598 818.337 -167.178 817.684 Q -166.757 817.031 -167.631 814.951 Q -168.504 812.871 -169.421 811.277 Q -170.338 809.682 -171.333 808.124 "></path>
    <path id="STROKE_9b6e35ba-28bb-44c5-bf85-eb2e903516a7" opacity="1.000" fill="none" stroke="#000000" stroke-width="1.600" stroke-opacity="1.000" stroke-linecap="round" stroke-linejoin="round" d="M -175.896 816.118 Q -175.848 815.996 -176.009 816.176 Q -176.169 816.355 -177.664 808.531 Q -177.841 808.500 -177.948 808.513 "></path>
    <path id="STROKE_dd0596fd-dfb6-4fc6-9dba-620f7de30787" opacity="1.000" fill="none" stroke="#000000" stroke-width="1.600" stroke-opacity="1.000" stroke-linecap="round" stroke-linejoin="round" d="M -183.926 813.218 Q -184.292 813.434 -184.300 813.423 Q -184.348 813.421 -184.614 813.153 Q -184.880 812.886 -184.919 812.800 Q -184.958 812.714 -185.000 812.710 Q -185.042 812.705 -185.985 810.795 Q -186.927 808.886 -188.206 804.622 "></path>
    <path id="STROKE_acc04b88-af28-4236-844f-59a7f1674333" opacity="1.000" fill="none" stroke="#000000" stroke-width="1.600" stroke-opacity="1.000" stroke-linecap="round" stroke-linejoin="round" d="M -176.321 799.386 Q -176.438 799.368 -175.550 799.802 Q -174.662 800.235 -173.703 800.689 Q -172.743 801.142 -170.034 801.527 Q -169.970 801.474 -169.921 801.488 Q -169.872 801.502 -170.184 801.303 Q -170.497 801.103 -171.616 800.348 Q -172.735 799.593 -173.492 799.026 Q -174.249 798.459 -175.349 797.496 Q -176.449 796.532 -177.242 795.435 Q -178.035 794.338 -178.167 792.972 Q -178.299 791.607 -175.815 790.891 Q -173.331 790.174 -168.751 790.755 "></path>
    <path id="STROKE_1b7699c6-9359-450e-9aab-fdbe916cdd7c" opacity="1.000" fill="none" stroke="#000000" stroke-width="1.600" stroke-opacity="1.000" stroke-linecap="round" stroke-linejoin="round" d="M -173.526 783.610 Q -172.642 783.251 -173.696 781.908 Q -174.749 780.565 -175.272 779.985 Q -175.796 779.405 -176.240 779.126 Q -176.685 778.847 -176.939 778.793 Q -177.194 778.739 -177.268 778.742 Q -177.342 778.744 -177.563 778.806 Q -177.784 778.868 -177.970 778.974 Q -178.155 779.080 -178.124 779.066 Q -178.092 779.053 -178.121 778.999 Q -178.149 778.945 -178.385 779.731 Q -178.621 780.516 -177.826 781.708 Q -177.030 782.900 -176.421 783.347 Q -175.812 783.794 -174.678 784.084 Q -173.543 784.375 -173.053 784.287 Q -172.564 784.199 -171.753 783.901 Q -170.943 783.603 -170.244 782.016 Q -169.545 780.429 -169.918 777.596 "></path>
    <path id="STROKE_3c3a693b-d393-4cc0-97e0-c56899f9a2da" opacity="1.000" fill="none" stroke="#000000" stroke-width="1.600" stroke-opacity="1.000" stroke-linecap="round" stroke-linejoin="round" d="M -172.147 772.537 Q -172.555 772.744 -169.808 772.239 Q -169.686 771.847 -170.953 771.109 Q -172.221 770.370 -173.389 769.667 Q -174.558 768.964 -175.156 768.059 Q -175.754 767.154 -176.011 766.616 Q -176.268 766.079 -176.215 764.614 "></path>
    <path id="STROKE_356efda8-8d02-4d43-9bf6-57966aab173a" opacity="1.000" fill="none" stroke="#000000" stroke-width="1.600" stroke-opacity="1.000" stroke-linecap="round" stroke-linejoin="round" d="M -172.677 757.150 Q -172.578 757.167 -172.582 757.194 Q -172.585 757.221 -172.405 756.700 Q -172.225 756.179 -172.303 755.615 Q -172.382 755.050 -172.438 754.879 Q -172.494 754.708 -172.618 754.418 Q -172.742 754.129 -173.104 753.370 Q -173.466 752.611 -173.951 752.174 Q -174.437 751.737 -174.743 751.575 Q -175.050 751.413 -175.384 751.560 Q -175.718 751.706 -175.851 751.817 Q -175.984 751.928 -175.990 751.954 Q -175.996 751.980 -176.364 752.552 Q -176.732 753.125 -176.963 754.344 Q -177.195 755.562 -177.025 756.429 Q -176.856 757.295 -176.746 757.546 Q -176.637 757.797 -176.418 757.921 Q -176.199 758.046 -175.709 758.019 Q -175.220 757.993 -175.260 757.963 "></path>
    <path id="STROKE_45a3faf7-8c55-4bc1-9d66-3d6e12b4caf0" opacity="1.000" fill="none" stroke="#000000" stroke-width="1.600" stroke-opacity="1.000" stroke-linecap="round" stroke-linejoin="round" d="M -175.755 750.888 Q -176.152 750.863 -172.611 750.783 Q -169.070 750.704 -166.821 751.054 Q -164.572 751.405 -163.373 751.675 Q -162.175 751.944 -161.609 752.765 Q -161.042 753.585 -161.533 754.653 Q -162.024 755.721 -162.485 756.306 Q -162.946 756.891 -164.683 757.680 "></path>
    <path id="STROKE_d69112ac-cfcd-4444-bbac-0e76b088cb3e" opacity="1.000" fill="none" stroke="#000000" stroke-width="1.600" stroke-opacity="1.000" stroke-linecap="round" stroke-linejoin="round" d="M -177.948 735.501 Q -177.856 735.723 -177.656 736.012 Q -177.455 736.301 -177.432 736.261 Q -177.409 736.221 -177.301 736.426 Q -177.193 736.632 -174.742 738.199 Q -172.292 739.766 -168.256 740.842 "></path>
    <path id="STROKE_567e92e4-bade-47d0-becb-9cddf065fbfb" opacity="1.000" fill="none" stroke="#000000" stroke-width="1.600" stroke-opacity="1.000" stroke-linecap="round" stroke-linejoin="round" d="M -171.652 740.170 Q -171.172 739.957 -175.471 742.219 Q -175.683 742.097 -175.790 742.010 "></path>
    <path id="STROKE_79188376-3073-470b-9fdd-847a4fa8eca7" opacity="1.000" fill="none" stroke="#d75341" stroke-width="1.600" stroke-opacity="1.000" stroke-linecap="round" stroke-linejoin="round" d="M -108.864 713.887 L -108.855 713.896 Q -108.817 713.871 -107.307 714.382 "></path>
    <path id="STROKE_7424f16e-d217-4d2b-a82c-586c9ff70f43" opacity="1.000" fill="none" stroke="#d75341" stroke-width="1.600" stroke-opacity="1.000" stroke-linecap="round" stroke-linejoin="round" d="M -103.275 714.701 Q -103.661 714.342 -100.657 714.736 "></path>
    <circle id="STROKE_5dc5e011-27f9-4e4c-a66e-40e30edf40a2" opacity="1.000" fill="#d75341" stroke="#d75341" stroke-width="0.1" stroke-opacity="1.000" fill-opacity="1.000" cx="-93.794" cy="714.418" r="0.800"></circle>
    <path id="STROKE_ea1ce709-00ff-4e6f-aada-7970fe9002bb" opacity="1.000" fill="none" stroke="#d75341" stroke-width="1.600" stroke-opacity="1.000" stroke-linecap="round" stroke-linejoin="round" d="M -87.357 714.453 Q -87.148 714.384 -87.263 714.391 Q -87.378 714.399 -86.918 714.258 Q -86.458 714.117 -84.067 714.241 "></path>
    <circle id="STROKE_939c142b-b4ab-4b39-9928-1956d6a580ef" opacity="1.000" fill="#d75341" stroke="#d75341" stroke-width="0.1" stroke-opacity="1.000" fill-opacity="1.000" cx="-75.471" cy="712.614" r="0.800"></circle>
    <path id="STROKE_4fe28882-95c0-4c1f-b5c6-053627963261" opacity="1.000" fill="none" stroke="#d75341" stroke-width="1.600" stroke-opacity="1.000" stroke-linecap="round" stroke-linejoin="round" d="M -68.432 712.331 L -68.435 712.313 Q -68.437 712.373 -67.052 712.614 "></path>
    <path id="STROKE_5f2cfa55-ee28-43c6-a333-43926aa65445" opacity="1.000" fill="none" stroke="#d75341" stroke-width="1.600" stroke-opacity="1.000" stroke-linecap="round" stroke-linejoin="round" d="M -58.987 713.463 Q -57.842 713.422 -57.900 713.450 Q -57.957 713.477 -57.796 713.504 Q -57.636 713.530 -57.604 713.541 Q -57.571 713.552 -57.150 713.589 Q -56.729 713.625 -55.909 713.640 "></path>
    <path id="STROKE_5b8ee53c-5514-4d2f-a1cb-5001d083f0d6" opacity="1.000" fill="none" stroke="#d75341" stroke-width="1.600" stroke-opacity="1.000" stroke-linecap="round" stroke-linejoin="round" d="M -47.031 712.366 Q -47.198 712.375 -46.778 712.138 Q -46.357 711.902 -45.050 712.225 "></path>
    <circle id="STROKE_1bdfab5c-cce0-419a-bd6b-ada48a4eda10" opacity="1.000" fill="#d75341" stroke="#d75341" stroke-width="0.1" stroke-opacity="1.000" fill-opacity="1.000" cx="-39.567" cy="712.755" r="0.800"></circle>
    <circle id="STROKE_28ef1784-75ed-483a-bd1e-20951504e7f4" opacity="1.000" fill="#d75341" stroke="#d75341" stroke-width="0.1" stroke-opacity="1.000" fill-opacity="1.000" cx="-35.181" cy="711.659" r="0.800"></circle>
    <path id="STROKE_ac6fed49-dc3a-4fc0-b277-f26e216c754b" opacity="1.000" fill="none" stroke="#d75341" stroke-width="1.600" stroke-opacity="1.000" stroke-linecap="round" stroke-linejoin="round" d="M -33.447 712.260 Q -33.260 712.087 -31.788 711.774 Q -30.316 711.462 -29.816 711.488 Q -29.316 711.513 -29.045 711.567 Q -28.773 711.621 -28.315 711.823 Q -27.857 712.024 -27.349 712.214 Q -26.840 712.404 -26.443 712.508 "></path>
    <circle id="STROKE_014e8f52-7fbb-4327-b1fd-ee8d8c871015" opacity="1.000" fill="#d75341" stroke="#d75341" stroke-width="0.1" stroke-opacity="1.000" fill-opacity="1.000" cx="-22.658" cy="711.977" r="0.800"></circle>
    <path id="STROKE_2e6ba74e-556f-48aa-b060-b4fa3f130fd1" opacity="1.000" fill="none" stroke="#d75341" stroke-width="1.600" stroke-opacity="1.000" stroke-linecap="round" stroke-linejoin="round" d="M -38.895 648.162 L -38.882 648.172 Q -38.501 647.909 -38.499 647.904 Q -37.701 647.454 -37.971 647.611 Q -38.017 647.581 -37.586 647.702 "></path>
    <path id="STROKE_ccb6a27f-e7e3-45f8-82a1-7a1224ff548e" opacity="1.000" fill="none" stroke="#d75341" stroke-width="1.600" stroke-opacity="1.000" stroke-linecap="round" stroke-linejoin="round" d="M -25.913 649.329 Q -25.781 649.336 -25.981 649.302 Q -26.181 649.269 -24.902 648.900 Q -23.623 648.531 -21.951 648.339 "></path>
    <path id="STROKE_dfd55aa4-1fd4-45cb-9195-99dcfbcfc57a" opacity="1.000" fill="none" stroke="#d75341" stroke-width="1.600" stroke-opacity="1.000" stroke-linecap="round" stroke-linejoin="round" d="M -13.744 648.091 Q -13.756 648.071 -13.783 647.986 L -13.785 647.984 Q -13.242 647.893 -12.329 648.056 "></path>
    <path id="STROKE_7e35c7ba-bf1e-448e-a26a-772c8b92532e" opacity="1.000" fill="none" stroke="#d75341" stroke-width="1.600" stroke-opacity="1.000" stroke-linecap="round" stroke-linejoin="round" d="M -4.087 647.631 Q -3.536 647.599 -3.755 647.596 Q -3.975 647.592 -3.393 647.631 Q -2.812 647.671 -2.393 647.730 Q -1.974 647.789 -1.540 647.879 "></path>
    <circle id="STROKE_73d007aa-f943-473a-bd69-1ef79e23cb91" opacity="1.000" fill="#d75341" stroke="#d75341" stroke-width="0.1" stroke-opacity="1.000" fill-opacity="1.000" cx="6.914" cy="648.516" r="0.800"></circle>
    <path id="STROKE_e8a3ef55-48ad-4470-ab26-5606f4cd14ce" opacity="1.000" fill="none" stroke="#d75341" stroke-width="1.600" stroke-opacity="1.000" stroke-linecap="round" stroke-linejoin="round" d="M 17.208 648.693 Q 18.243 648.579 17.971 648.621 Q 18.742 648.717 18.621 648.714 L 18.693 648.728 "></path>
    <path id="STROKE_5cfaf595-dd2f-433c-83d3-75e3d1fb7815" opacity="1.000" fill="none" stroke="#d75341" stroke-width="1.600" stroke-opacity="1.000" stroke-linecap="round" stroke-linejoin="round" d="M 30.331 648.516 Q 30.450 648.486 30.952 648.367 Q 31.454 648.248 31.654 648.205 Q 31.854 648.161 32.878 648.233 "></path>
    <path id="STROKE_798f8359-04ea-406b-85b2-cbed96a4070d" opacity="1.000" fill="none" stroke="#d75341" stroke-width="1.600" stroke-opacity="1.000" stroke-linecap="round" stroke-linejoin="round" d="M 42.181 648.516 Q 42.787 648.252 42.650 648.296 Q 42.805 647.969 44.162 648.162 "></path>
    <circle id="STROKE_2a579ba9-0a5c-4fe2-a1b6-88570ef70e22" opacity="1.000" fill="#d75341" stroke="#d75341" stroke-width="0.1" stroke-opacity="1.000" fill-opacity="1.000" cx="79.713" cy="892.562" r="0.800"></circle>
    <path id="STROKE_7f9897b9-9dfe-4259-9329-30e031e10a00" opacity="1.000" fill="none" stroke="#d75341" stroke-width="1.600" stroke-opacity="1.000" stroke-linecap="round" stroke-linejoin="round" d="M 89.723 892.774 Q 89.259 892.764 91.039 892.476 Q 92.818 892.189 95.666 891.996 "></path>
    <path id="STROKE_b34200cf-a1a8-4574-85a4-4d9fd3675928" opacity="1.000" fill="none" stroke="#d75341" stroke-width="1.600" stroke-opacity="1.000" stroke-linecap="round" stroke-linejoin="round" d="M 101.892 892.562 Q 101.344 892.504 105.040 892.456 "></path>
    <path id="STROKE_6e0e53d0-e735-45d7-b04a-064544cfb09f" opacity="1.000" fill="none" stroke="#d75341" stroke-width="1.600" stroke-opacity="1.000" stroke-linecap="round" stroke-linejoin="round" d="M 111.973 891.996 L 112.064 891.821 Q 112.562 891.194 116.395 891.854 "></path>
    <path id="STROKE_d70ce786-f6ca-44dc-b463-e4481e2bb028" opacity="1.000" fill="none" stroke="#d75341" stroke-width="1.600" stroke-opacity="1.000" stroke-linecap="round" stroke-linejoin="round" d="M 123.576 892.102 Q 123.957 891.820 123.909 891.849 Q 124.391 891.466 124.300 891.576 Q 125.267 891.615 125.029 891.633 Q 125.186 891.712 126.406 891.784 "></path>
    <path id="STROKE_179b69a9-b6bb-42c7-8534-90834608dfc6" opacity="1.000" fill="none" stroke="#d75341" stroke-width="1.600" stroke-opacity="1.000" stroke-linecap="round" stroke-linejoin="round" d="M 134.046 891.996 Q 134.025 892.065 134.134 891.847 Q 134.244 891.630 136.522 891.819 "></path>
    <path id="STROKE_7cb8ad18-939c-46c0-9291-6ec861d18717" opacity="1.000" fill="none" stroke="#d75341" stroke-width="1.600" stroke-opacity="1.000" stroke-linecap="round" stroke-linejoin="round" d="M 142.713 892.067 Q 142.395 891.713 146.710 891.748 "></path>
    <path id="STROKE_ac552aa2-7a2c-4dd2-8f9a-1f73f68f8a34" opacity="1.000" fill="none" stroke="#d75341" stroke-width="1.600" stroke-opacity="1.000" stroke-linecap="round" stroke-linejoin="round" d="M 153.997 891.607 Q 154.576 891.408 154.529 891.434 Q 155.170 891.267 155.162 891.295 Q 155.803 891.289 155.835 891.293 Q 155.867 891.298 155.899 891.299 Q 155.930 891.300 155.843 891.334 Q 155.757 891.367 159.268 891.642 "></path>
    <path id="STROKE_885b7f56-6083-4592-867f-516471d97829" opacity="1.000" fill="none" stroke="#d75341" stroke-width="1.600" stroke-opacity="1.000" stroke-linecap="round" stroke-linejoin="round" d="M 165.104 892.137 Q 164.755 892.308 165.518 891.966 Q 166.281 891.623 167.483 891.838 Q 168.685 892.054 170.269 892.491 "></path>
    <circle id="STROKE_28d443dd-66ac-417c-b4df-1e009302803d" opacity="1.000" fill="#d75341" stroke="#d75341" stroke-width="0.1" stroke-opacity="1.000" fill-opacity="1.000" cx="176.601" cy="892.916" r="0.800"></circle>
    <path id="STROKE_09754c43-020d-4171-ae4b-69dc4c0c4eeb" opacity="1.000" fill="none" stroke="#ffb352" stroke-width="1.600" stroke-opacity="1.000" stroke-linecap="round" stroke-linejoin="round" d="M -29.804 896.984 L -29.771 896.975 Q -29.258 896.680 -29.276 896.722 Q -28.155 896.662 -28.456 896.699 Q -27.538 896.719 -27.641 896.703 L -26.726 896.701 "></path>
    <path id="STROKE_fb755346-0345-4817-a4c1-21fc485f4a4e" opacity="1.000" fill="none" stroke="#ffb352" stroke-width="1.600" stroke-opacity="1.000" stroke-linecap="round" stroke-linejoin="round" d="M -12.188 895.746 Q -11.750 895.379 -11.869 895.432 Q -11.793 894.347 -7.165 894.578 "></path>
    <path id="STROKE_a5a046fd-dd90-4469-a2f8-6c065dd77023" opacity="1.000" fill="none" stroke="#ffb352" stroke-width="1.600" stroke-opacity="1.000" stroke-linecap="round" stroke-linejoin="round" d="M -1.116 895.003 Q -1.665 895.028 2.174 894.720 "></path>
    <path id="STROKE_f396f319-ce82-43a8-9f18-5be190579c9c" opacity="1.000" fill="none" stroke="#ffb352" stroke-width="1.600" stroke-opacity="1.000" stroke-linecap="round" stroke-linejoin="round" d="M 11.123 895.675 Q 11.112 895.671 11.288 895.452 Q 11.463 895.232 15.050 894.897 "></path>
    <path id="STROKE_0784a79b-06da-4e6e-9e8c-ea2d819f254d" opacity="1.000" fill="none" stroke="#ffb352" stroke-width="1.600" stroke-opacity="1.000" stroke-linecap="round" stroke-linejoin="round" d="M 23.044 895.109 Q 23.169 895.031 23.292 894.983 Q 23.384 895.005 23.716 895.050 Q 24.047 895.096 24.266 895.065 Q 24.484 895.035 24.755 895.134 Q 25.025 895.234 25.430 895.372 Q 25.835 895.511 26.263 895.569 "></path>
  </g>
</svg>